<?xml version="1.0" encoding="UTF-8" standalone="no"?>
<!-- Created with Inkscape (http://www.inkscape.org/) -->

<svg
   xmlns:dc="http://purl.org/dc/elements/1.1/"
   xmlns:cc="http://creativecommons.org/ns#"
   xmlns:rdf="http://www.w3.org/1999/02/22-rdf-syntax-ns#"
   xmlns:svg="http://www.w3.org/2000/svg"
   xmlns="http://www.w3.org/2000/svg"
   xmlns:sodipodi="http://sodipodi.sourceforge.net/DTD/sodipodi-0.dtd"
   xmlns:inkscape="http://www.inkscape.org/namespaces/inkscape"
   id="svg2"
   version="1.1"
   inkscape:version="0.48.3.1 r9886"
   width="744.09447"
   height="1052.3622"
   xml:space="preserve"
   sodipodi:docname="acircles.pdf"><metadata
     id="metadata8"><rdf:RDF><cc:Work
         rdf:about=""><dc:format>image/svg+xml</dc:format><dc:type
           rdf:resource="http://purl.org/dc/dcmitype/StillImage" /><dc:title></dc:title></cc:Work></rdf:RDF></metadata><defs
     id="defs6" /><sodipodi:namedview
     pagecolor="#ffffff"
     bordercolor="#666666"
     borderopacity="1"
     objecttolerance="10"
     gridtolerance="10"
     guidetolerance="10"
     inkscape:pageopacity="0"
     inkscape:pageshadow="2"
     inkscape:window-width="1440"
     inkscape:window-height="875"
     id="namedview4"
     showgrid="false"
     inkscape:zoom="0.44851479"
     inkscape:cx="675.6666"
     inkscape:cy="319.47367"
     inkscape:window-x="0"
     inkscape:window-y="-29"
     inkscape:window-maximized="1"
     inkscape:current-layer="g10" /><g
     id="g10"
     inkscape:groupmode="layer"
     inkscape:label="acircles"
     transform="matrix(1.25,0,0,-1.25,0,1052.3622)"><g
       id="g12"><path
         d="m 66.715,194.175 c 0,-5.535 -4.488,-10.024 -10.024,-10.024 -5.535,0 -10.019,4.489 -10.019,10.024 0,5.535 4.484,10.019 10.019,10.019 5.536,0 10.024,-4.484 10.024,-10.019 z"
         style="fill:#000000;fill-opacity:1;fill-rule:nonzero;stroke:none"
         id="path14" /><path
         d="m 123.406,194.175 c 0,-5.535 -4.484,-10.024 -10.019,-10.024 -5.535,0 -10.024,4.489 -10.024,10.024 0,5.535 4.489,10.019 10.024,10.019 5.535,0 10.019,-4.484 10.019,-10.019 z"
         style="fill:#000000;fill-opacity:1;fill-rule:nonzero;stroke:none"
         id="path16" /><path
         d="m 180.102,194.175 c 0,-5.535 -4.489,-10.024 -10.024,-10.024 -5.535,0 -10.019,4.489 -10.019,10.024 0,5.535 4.484,10.019 10.019,10.019 5.535,0 10.024,-4.484 10.024,-10.019 z"
         style="fill:#000000;fill-opacity:1;fill-rule:nonzero;stroke:none"
         id="path18" /><path
         d="m 236.793,194.175 c 0,-5.535 -4.488,-10.024 -10.02,-10.024 -5.535,0 -10.023,4.489 -10.023,10.024 0,5.535 4.488,10.019 10.023,10.019 5.532,0 10.02,-4.484 10.02,-10.019 z"
         style="fill:#000000;fill-opacity:1;fill-rule:nonzero;stroke:none"
         id="path20" /><path
         d="m 293.488,194.175 c 0,-5.535 -4.488,-10.024 -10.023,-10.024 -5.535,0 -10.024,4.489 -10.024,10.024 0,5.535 4.489,10.019 10.024,10.019 5.535,0 10.023,-4.484 10.023,-10.019 z"
         style="fill:#000000;fill-opacity:1;fill-rule:nonzero;stroke:none"
         id="path22" /><path
         d="m 350.18,194.175 c 0,-5.535 -4.489,-10.024 -10.024,-10.024 -5.535,0 -10.019,4.489 -10.019,10.024 0,5.535 4.484,10.019 10.019,10.019 5.535,0 10.024,-4.484 10.024,-10.019 z"
         style="fill:#000000;fill-opacity:1;fill-rule:nonzero;stroke:none"
         id="path24" /><path
         d="m 406.871,194.175 c 0,-5.535 -4.484,-10.024 -10.019,-10.024 -5.536,0 -10.024,4.489 -10.024,10.024 0,5.535 4.488,10.019 10.024,10.019 5.535,0 10.019,-4.484 10.019,-10.019 z"
         style="fill:#000000;fill-opacity:1;fill-rule:nonzero;stroke:none"
         id="path26" /><path
         d="m 463.566,194.175 c 0,-5.535 -4.488,-10.024 -10.023,-10.024 -5.535,0 -10.023,4.489 -10.023,10.024 0,5.535 4.488,10.019 10.023,10.019 5.535,0 10.023,-4.484 10.023,-10.019 z"
         style="fill:#000000;fill-opacity:1;fill-rule:nonzero;stroke:none"
         id="path28" /><path
         d="m 520.258,194.175 c 0,-5.535 -4.488,-10.024 -10.024,-10.024 -5.531,0 -10.019,4.489 -10.019,10.024 0,5.535 4.488,10.019 10.019,10.019 5.536,0 10.024,-4.484 10.024,-10.019 z"
         style="fill:#000000;fill-opacity:1;fill-rule:nonzero;stroke:none"
         id="path30" /><path
         d="m 66.715,250.866 c 0,-5.535 -4.488,-10.023 -10.024,-10.023 -5.535,0 -10.019,4.488 -10.019,10.023 0,5.535 4.484,10.024 10.019,10.024 5.536,0 10.024,-4.489 10.024,-10.024 z"
         style="fill:#000000;fill-opacity:1;fill-rule:nonzero;stroke:none"
         id="path32" /><path
         d="m 123.406,250.866 c 0,-5.535 -4.484,-10.023 -10.019,-10.023 -5.535,0 -10.024,4.488 -10.024,10.023 0,5.535 4.489,10.024 10.024,10.024 5.535,0 10.019,-4.489 10.019,-10.024 z"
         style="fill:#000000;fill-opacity:1;fill-rule:nonzero;stroke:none"
         id="path34" /><path
         d="m 180.102,250.866 c 0,-5.535 -4.489,-10.023 -10.024,-10.023 -5.535,0 -10.019,4.488 -10.019,10.023 0,5.535 4.484,10.024 10.019,10.024 5.535,0 10.024,-4.489 10.024,-10.024 z"
         style="fill:#000000;fill-opacity:1;fill-rule:nonzero;stroke:none"
         id="path36" /><path
         d="m 236.793,250.866 c 0,-5.535 -4.488,-10.023 -10.02,-10.023 -5.535,0 -10.023,4.488 -10.023,10.023 0,5.535 4.488,10.024 10.023,10.024 5.532,0 10.02,-4.489 10.02,-10.024 z"
         style="fill:#000000;fill-opacity:1;fill-rule:nonzero;stroke:none"
         id="path38" /><path
         d="m 293.488,250.866 c 0,-5.535 -4.488,-10.023 -10.023,-10.023 -5.535,0 -10.024,4.488 -10.024,10.023 0,5.535 4.489,10.024 10.024,10.024 5.535,0 10.023,-4.489 10.023,-10.024 z"
         style="fill:#000000;fill-opacity:1;fill-rule:nonzero;stroke:none"
         id="path40" /><path
         d="m 350.18,250.866 c 0,-5.535 -4.489,-10.023 -10.024,-10.023 -5.535,0 -10.019,4.488 -10.019,10.023 0,5.535 4.484,10.024 10.019,10.024 5.535,0 10.024,-4.489 10.024,-10.024 z"
         style="fill:#000000;fill-opacity:1;fill-rule:nonzero;stroke:none"
         id="path42" /><path
         d="m 406.871,250.866 c 0,-5.535 -4.484,-10.023 -10.019,-10.023 -5.536,0 -10.024,4.488 -10.024,10.023 0,5.535 4.488,10.024 10.024,10.024 5.535,0 10.019,-4.489 10.019,-10.024 z"
         style="fill:#000000;fill-opacity:1;fill-rule:nonzero;stroke:none"
         id="path44" /><path
         d="m 463.566,250.866 c 0,-5.535 -4.488,-10.023 -10.023,-10.023 -5.535,0 -10.023,4.488 -10.023,10.023 0,5.535 4.488,10.024 10.023,10.024 5.535,0 10.023,-4.489 10.023,-10.024 z"
         style="fill:#000000;fill-opacity:1;fill-rule:nonzero;stroke:none"
         id="path46" /><path
         d="m 520.258,250.866 c 0,-5.535 -4.488,-10.023 -10.024,-10.023 -5.531,0 -10.019,4.488 -10.019,10.023 0,5.535 4.488,10.024 10.019,10.024 5.536,0 10.024,-4.489 10.024,-10.024 z"
         style="fill:#000000;fill-opacity:1;fill-rule:nonzero;stroke:none"
         id="path48" /><path
         d="m 66.715,307.558 c 0,-5.535 -4.488,-10.02 -10.024,-10.02 -5.535,0 -10.019,4.485 -10.019,10.02 0,5.535 4.484,10.023 10.019,10.023 5.536,0 10.024,-4.488 10.024,-10.023 z"
         style="fill:#000000;fill-opacity:1;fill-rule:nonzero;stroke:none"
         id="path50" /><path
         d="m 123.406,307.558 c 0,-5.535 -4.484,-10.02 -10.019,-10.02 -5.535,0 -10.024,4.485 -10.024,10.02 0,5.535 4.489,10.023 10.024,10.023 5.535,0 10.019,-4.488 10.019,-10.023 z"
         style="fill:#000000;fill-opacity:1;fill-rule:nonzero;stroke:none"
         id="path52" /><path
         d="m 180.102,307.558 c 0,-5.535 -4.489,-10.02 -10.024,-10.02 -5.535,0 -10.019,4.485 -10.019,10.02 0,5.535 4.484,10.023 10.019,10.023 5.535,0 10.024,-4.488 10.024,-10.023 z"
         style="fill:#000000;fill-opacity:1;fill-rule:nonzero;stroke:none"
         id="path54" /><path
         d="m 236.793,307.558 c 0,-5.535 -4.488,-10.02 -10.02,-10.02 -5.535,0 -10.023,4.485 -10.023,10.02 0,5.535 4.488,10.023 10.023,10.023 5.532,0 10.02,-4.488 10.02,-10.023 z"
         style="fill:#000000;fill-opacity:1;fill-rule:nonzero;stroke:none"
         id="path56" /><path
         d="m 293.488,307.558 c 0,-5.535 -4.488,-10.02 -10.023,-10.02 -5.535,0 -10.024,4.485 -10.024,10.02 0,5.535 4.489,10.023 10.024,10.023 5.535,0 10.023,-4.488 10.023,-10.023 z"
         style="fill:#000000;fill-opacity:1;fill-rule:nonzero;stroke:none"
         id="path58" /><path
         d="m 350.18,307.558 c 0,-5.535 -4.489,-10.02 -10.024,-10.02 -5.535,0 -10.019,4.485 -10.019,10.02 0,5.535 4.484,10.023 10.019,10.023 5.535,0 10.024,-4.488 10.024,-10.023 z"
         style="fill:#000000;fill-opacity:1;fill-rule:nonzero;stroke:none"
         id="path60" /><path
         d="m 406.871,307.558 c 0,-5.535 -4.484,-10.02 -10.019,-10.02 -5.536,0 -10.024,4.485 -10.024,10.02 0,5.535 4.488,10.023 10.024,10.023 5.535,0 10.019,-4.488 10.019,-10.023 z"
         style="fill:#000000;fill-opacity:1;fill-rule:nonzero;stroke:none"
         id="path62" /><path
         d="m 463.566,307.558 c 0,-5.535 -4.488,-10.02 -10.023,-10.02 -5.535,0 -10.023,4.485 -10.023,10.02 0,5.535 4.488,10.023 10.023,10.023 5.535,0 10.023,-4.488 10.023,-10.023 z"
         style="fill:#000000;fill-opacity:1;fill-rule:nonzero;stroke:none"
         id="path64" /><path
         d="m 520.258,307.558 c 0,-5.535 -4.488,-10.02 -10.024,-10.02 -5.531,0 -10.019,4.485 -10.019,10.02 0,5.535 4.488,10.023 10.019,10.023 5.536,0 10.024,-4.488 10.024,-10.023 z"
         style="fill:#000000;fill-opacity:1;fill-rule:nonzero;stroke:none"
         id="path66" /><path
         d="m 66.715,364.253 c 0,-5.535 -4.488,-10.023 -10.024,-10.023 -5.535,0 -10.019,4.488 -10.019,10.023 0,5.535 4.484,10.02 10.019,10.02 5.536,0 10.024,-4.485 10.024,-10.02 z"
         style="fill:#000000;fill-opacity:1;fill-rule:nonzero;stroke:none"
         id="path68" /><path
         d="m 123.406,364.253 c 0,-5.535 -4.484,-10.023 -10.019,-10.023 -5.535,0 -10.024,4.488 -10.024,10.023 0,5.535 4.489,10.02 10.024,10.02 5.535,0 10.019,-4.485 10.019,-10.02 z"
         style="fill:#000000;fill-opacity:1;fill-rule:nonzero;stroke:none"
         id="path70" /><path
         d="m 180.102,364.253 c 0,-5.535 -4.489,-10.023 -10.024,-10.023 -5.535,0 -10.019,4.488 -10.019,10.023 0,5.535 4.484,10.02 10.019,10.02 5.535,0 10.024,-4.485 10.024,-10.02 z"
         style="fill:#000000;fill-opacity:1;fill-rule:nonzero;stroke:none"
         id="path72" /><path
         d="m 236.793,364.253 c 0,-5.535 -4.488,-10.023 -10.02,-10.023 -5.535,0 -10.023,4.488 -10.023,10.023 0,5.535 4.488,10.02 10.023,10.02 5.532,0 10.02,-4.485 10.02,-10.02 z"
         style="fill:#000000;fill-opacity:1;fill-rule:nonzero;stroke:none"
         id="path74" /><path
         d="m 293.488,364.253 c 0,-5.535 -4.488,-10.023 -10.023,-10.023 -5.535,0 -10.024,4.488 -10.024,10.023 0,5.535 4.489,10.02 10.024,10.02 5.535,0 10.023,-4.485 10.023,-10.02 z"
         style="fill:#000000;fill-opacity:1;fill-rule:nonzero;stroke:none"
         id="path76" /><path
         d="m 350.18,364.253 c 0,-5.535 -4.489,-10.023 -10.024,-10.023 -5.535,0 -10.019,4.488 -10.019,10.023 0,5.535 4.484,10.02 10.019,10.02 5.535,0 10.024,-4.485 10.024,-10.02 z"
         style="fill:#000000;fill-opacity:1;fill-rule:nonzero;stroke:none"
         id="path78" /><path
         d="m 406.871,364.253 c 0,-5.535 -4.484,-10.023 -10.019,-10.023 -5.536,0 -10.024,4.488 -10.024,10.023 0,5.535 4.488,10.02 10.024,10.02 5.535,0 10.019,-4.485 10.019,-10.02 z"
         style="fill:#000000;fill-opacity:1;fill-rule:nonzero;stroke:none"
         id="path80" /><path
         d="m 463.566,364.253 c 0,-5.535 -4.488,-10.023 -10.023,-10.023 -5.535,0 -10.023,4.488 -10.023,10.023 0,5.535 4.488,10.02 10.023,10.02 5.535,0 10.023,-4.485 10.023,-10.02 z"
         style="fill:#000000;fill-opacity:1;fill-rule:nonzero;stroke:none"
         id="path82" /><path
         d="m 520.258,364.253 c 0,-5.535 -4.488,-10.023 -10.024,-10.023 -5.531,0 -10.019,4.488 -10.019,10.023 0,5.535 4.488,10.02 10.019,10.02 5.536,0 10.024,-4.485 10.024,-10.02 z"
         style="fill:#000000;fill-opacity:1;fill-rule:nonzero;stroke:none"
         id="path84" /><path
         d="m 66.715,420.944 c 0,-5.535 -4.488,-10.019 -10.024,-10.019 -5.535,0 -10.019,4.484 -10.019,10.019 0,5.536 4.484,10.024 10.019,10.024 5.536,0 10.024,-4.488 10.024,-10.024 z"
         style="fill:#000000;fill-opacity:1;fill-rule:nonzero;stroke:none"
         id="path86" /><path
         d="m 123.406,420.944 c 0,-5.535 -4.484,-10.019 -10.019,-10.019 -5.535,0 -10.024,4.484 -10.024,10.019 0,5.536 4.489,10.024 10.024,10.024 5.535,0 10.019,-4.488 10.019,-10.024 z"
         style="fill:#000000;fill-opacity:1;fill-rule:nonzero;stroke:none"
         id="path88" /><path
         d="m 180.102,420.944 c 0,-5.535 -4.489,-10.019 -10.024,-10.019 -5.535,0 -10.019,4.484 -10.019,10.019 0,5.536 4.484,10.024 10.019,10.024 5.535,0 10.024,-4.488 10.024,-10.024 z"
         style="fill:#000000;fill-opacity:1;fill-rule:nonzero;stroke:none"
         id="path90" /><path
         d="m 236.793,420.944 c 0,-5.535 -4.488,-10.019 -10.02,-10.019 -5.535,0 -10.023,4.484 -10.023,10.019 0,5.536 4.488,10.024 10.023,10.024 5.532,0 10.02,-4.488 10.02,-10.024 z"
         style="fill:#000000;fill-opacity:1;fill-rule:nonzero;stroke:none"
         id="path92" /><path
         d="m 293.488,420.944 c 0,-5.535 -4.488,-10.019 -10.023,-10.019 -5.535,0 -10.024,4.484 -10.024,10.019 0,5.536 4.489,10.024 10.024,10.024 5.535,0 10.023,-4.488 10.023,-10.024 z"
         style="fill:#000000;fill-opacity:1;fill-rule:nonzero;stroke:none"
         id="path94" /><path
         d="m 350.18,420.944 c 0,-5.535 -4.489,-10.019 -10.024,-10.019 -5.535,0 -10.019,4.484 -10.019,10.019 0,5.536 4.484,10.024 10.019,10.024 5.535,0 10.024,-4.488 10.024,-10.024 z"
         style="fill:#000000;fill-opacity:1;fill-rule:nonzero;stroke:none"
         id="path96" /><path
         d="m 406.871,420.944 c 0,-5.535 -4.484,-10.019 -10.019,-10.019 -5.536,0 -10.024,4.484 -10.024,10.019 0,5.536 4.488,10.024 10.024,10.024 5.535,0 10.019,-4.488 10.019,-10.024 z"
         style="fill:#000000;fill-opacity:1;fill-rule:nonzero;stroke:none"
         id="path98" /><path
         d="m 463.566,420.944 c 0,-5.535 -4.488,-10.019 -10.023,-10.019 -5.535,0 -10.023,4.484 -10.023,10.019 0,5.536 4.488,10.024 10.023,10.024 5.535,0 10.023,-4.488 10.023,-10.024 z"
         style="fill:#000000;fill-opacity:1;fill-rule:nonzero;stroke:none"
         id="path100" /><path
         d="m 520.258,420.944 c 0,-5.535 -4.488,-10.019 -10.024,-10.019 -5.531,0 -10.019,4.484 -10.019,10.019 0,5.536 4.488,10.024 10.019,10.024 5.536,0 10.024,-4.488 10.024,-10.024 z"
         style="fill:#000000;fill-opacity:1;fill-rule:nonzero;stroke:none"
         id="path102" /><path
         d="m 66.715,477.636 c 0,-5.531 -4.488,-10.02 -10.024,-10.02 -5.535,0 -10.019,4.489 -10.019,10.02 0,5.535 4.484,10.023 10.019,10.023 5.536,0 10.024,-4.488 10.024,-10.023 z"
         style="fill:#000000;fill-opacity:1;fill-rule:nonzero;stroke:none"
         id="path104" /><path
         d="m 123.406,477.636 c 0,-5.531 -4.484,-10.02 -10.019,-10.02 -5.535,0 -10.024,4.489 -10.024,10.02 0,5.535 4.489,10.023 10.024,10.023 5.535,0 10.019,-4.488 10.019,-10.023 z"
         style="fill:#000000;fill-opacity:1;fill-rule:nonzero;stroke:none"
         id="path106" /><path
         d="m 180.102,477.636 c 0,-5.531 -4.489,-10.02 -10.024,-10.02 -5.535,0 -10.019,4.489 -10.019,10.02 0,5.535 4.484,10.023 10.019,10.023 5.535,0 10.024,-4.488 10.024,-10.023 z"
         style="fill:#000000;fill-opacity:1;fill-rule:nonzero;stroke:none"
         id="path108" /><path
         d="m 236.793,477.636 c 0,-5.531 -4.488,-10.02 -10.02,-10.02 -5.535,0 -10.023,4.489 -10.023,10.02 0,5.535 4.488,10.023 10.023,10.023 5.532,0 10.02,-4.488 10.02,-10.023 z"
         style="fill:#000000;fill-opacity:1;fill-rule:nonzero;stroke:none"
         id="path110" /><path
         d="m 293.488,477.636 c 0,-5.531 -4.488,-10.02 -10.023,-10.02 -5.535,0 -10.024,4.489 -10.024,10.02 0,5.535 4.489,10.023 10.024,10.023 5.535,0 10.023,-4.488 10.023,-10.023 z"
         style="fill:#000000;fill-opacity:1;fill-rule:nonzero;stroke:none"
         id="path112" /><path
         d="m 350.18,477.636 c 0,-5.531 -4.489,-10.02 -10.024,-10.02 -5.535,0 -10.019,4.489 -10.019,10.02 0,5.535 4.484,10.023 10.019,10.023 5.535,0 10.024,-4.488 10.024,-10.023 z"
         style="fill:#000000;fill-opacity:1;fill-rule:nonzero;stroke:none"
         id="path114" /><path
         d="m 406.871,477.636 c 0,-5.531 -4.484,-10.02 -10.019,-10.02 -5.536,0 -10.024,4.489 -10.024,10.02 0,5.535 4.488,10.023 10.024,10.023 5.535,0 10.019,-4.488 10.019,-10.023 z"
         style="fill:#000000;fill-opacity:1;fill-rule:nonzero;stroke:none"
         id="path116" /><path
         d="m 463.566,477.636 c 0,-5.531 -4.488,-10.02 -10.023,-10.02 -5.535,0 -10.023,4.489 -10.023,10.02 0,5.535 4.488,10.023 10.023,10.023 5.535,0 10.023,-4.488 10.023,-10.023 z"
         style="fill:#000000;fill-opacity:1;fill-rule:nonzero;stroke:none"
         id="path118" /><path
         d="m 520.258,477.636 c 0,-5.531 -4.488,-10.02 -10.024,-10.02 -5.531,0 -10.019,4.489 -10.019,10.02 0,5.535 4.488,10.023 10.019,10.023 5.536,0 10.024,-4.488 10.024,-10.023 z"
         style="fill:#000000;fill-opacity:1;fill-rule:nonzero;stroke:none"
         id="path120" /><path
         d="m 66.715,534.331 c 0,-5.535 -4.488,-10.023 -10.024,-10.023 -5.535,0 -10.019,4.488 -10.019,10.023 0,5.535 4.484,10.02 10.019,10.02 5.536,0 10.024,-4.485 10.024,-10.02 z"
         style="fill:#000000;fill-opacity:1;fill-rule:nonzero;stroke:none"
         id="path122" /><path
         d="m 123.406,534.331 c 0,-5.535 -4.484,-10.023 -10.019,-10.023 -5.535,0 -10.024,4.488 -10.024,10.023 0,5.535 4.489,10.02 10.024,10.02 5.535,0 10.019,-4.485 10.019,-10.02 z"
         style="fill:#000000;fill-opacity:1;fill-rule:nonzero;stroke:none"
         id="path124" /><path
         d="m 180.102,534.331 c 0,-5.535 -4.489,-10.023 -10.024,-10.023 -5.535,0 -10.019,4.488 -10.019,10.023 0,5.535 4.484,10.02 10.019,10.02 5.535,0 10.024,-4.485 10.024,-10.02 z"
         style="fill:#000000;fill-opacity:1;fill-rule:nonzero;stroke:none"
         id="path126" /><path
         d="m 236.793,534.331 c 0,-5.535 -4.488,-10.023 -10.02,-10.023 -5.535,0 -10.023,4.488 -10.023,10.023 0,5.535 4.488,10.02 10.023,10.02 5.532,0 10.02,-4.485 10.02,-10.02 z"
         style="fill:#000000;fill-opacity:1;fill-rule:nonzero;stroke:none"
         id="path128" /><path
         d="m 293.488,534.331 c 0,-5.535 -4.488,-10.023 -10.023,-10.023 -5.535,0 -10.024,4.488 -10.024,10.023 0,5.535 4.489,10.02 10.024,10.02 5.535,0 10.023,-4.485 10.023,-10.02 z"
         style="fill:#000000;fill-opacity:1;fill-rule:nonzero;stroke:none"
         id="path130" /><path
         d="m 350.18,534.331 c 0,-5.535 -4.489,-10.023 -10.024,-10.023 -5.535,0 -10.019,4.488 -10.019,10.023 0,5.535 4.484,10.02 10.019,10.02 5.535,0 10.024,-4.485 10.024,-10.02 z"
         style="fill:#000000;fill-opacity:1;fill-rule:nonzero;stroke:none"
         id="path132" /><path
         d="m 406.871,534.331 c 0,-5.535 -4.484,-10.023 -10.019,-10.023 -5.536,0 -10.024,4.488 -10.024,10.023 0,5.535 4.488,10.02 10.024,10.02 5.535,0 10.019,-4.485 10.019,-10.02 z"
         style="fill:#000000;fill-opacity:1;fill-rule:nonzero;stroke:none"
         id="path134" /><path
         d="m 463.566,534.331 c 0,-5.535 -4.488,-10.023 -10.023,-10.023 -5.535,0 -10.023,4.488 -10.023,10.023 0,5.535 4.488,10.02 10.023,10.02 5.535,0 10.023,-4.485 10.023,-10.02 z"
         style="fill:#000000;fill-opacity:1;fill-rule:nonzero;stroke:none"
         id="path136" /><path
         d="m 520.258,534.331 c 0,-5.535 -4.488,-10.023 -10.024,-10.023 -5.531,0 -10.019,4.488 -10.019,10.023 0,5.535 4.488,10.02 10.019,10.02 5.536,0 10.024,-4.485 10.024,-10.02 z"
         style="fill:#000000;fill-opacity:1;fill-rule:nonzero;stroke:none"
         id="path138" /><path
         d="m 66.715,591.023 c 0,-5.536 -4.488,-10.02 -10.024,-10.02 -5.535,0 -10.019,4.484 -10.019,10.02 0,5.535 4.484,10.023 10.019,10.023 5.536,0 10.024,-4.488 10.024,-10.023 z"
         style="fill:#000000;fill-opacity:1;fill-rule:nonzero;stroke:none"
         id="path140" /><path
         d="m 123.406,591.023 c 0,-5.536 -4.484,-10.02 -10.019,-10.02 -5.535,0 -10.024,4.484 -10.024,10.02 0,5.535 4.489,10.023 10.024,10.023 5.535,0 10.019,-4.488 10.019,-10.023 z"
         style="fill:#000000;fill-opacity:1;fill-rule:nonzero;stroke:none"
         id="path142" /><path
         d="m 180.102,591.023 c 0,-5.536 -4.489,-10.02 -10.024,-10.02 -5.535,0 -10.019,4.484 -10.019,10.02 0,5.535 4.484,10.023 10.019,10.023 5.535,0 10.024,-4.488 10.024,-10.023 z"
         style="fill:#000000;fill-opacity:1;fill-rule:nonzero;stroke:none"
         id="path144" /><path
         d="m 236.793,591.023 c 0,-5.536 -4.488,-10.02 -10.02,-10.02 -5.535,0 -10.023,4.484 -10.023,10.02 0,5.535 4.488,10.023 10.023,10.023 5.532,0 10.02,-4.488 10.02,-10.023 z"
         style="fill:#000000;fill-opacity:1;fill-rule:nonzero;stroke:none"
         id="path146" /><path
         d="m 293.488,591.023 c 0,-5.536 -4.488,-10.02 -10.023,-10.02 -5.535,0 -10.024,4.484 -10.024,10.02 0,5.535 4.489,10.023 10.024,10.023 5.535,0 10.023,-4.488 10.023,-10.023 z"
         style="fill:#000000;fill-opacity:1;fill-rule:nonzero;stroke:none"
         id="path148" /><path
         d="m 350.18,591.023 c 0,-5.536 -4.489,-10.02 -10.024,-10.02 -5.535,0 -10.019,4.484 -10.019,10.02 0,5.535 4.484,10.023 10.019,10.023 5.535,0 10.024,-4.488 10.024,-10.023 z"
         style="fill:#000000;fill-opacity:1;fill-rule:nonzero;stroke:none"
         id="path150" /><path
         d="m 406.871,591.023 c 0,-5.536 -4.484,-10.02 -10.019,-10.02 -5.536,0 -10.024,4.484 -10.024,10.02 0,5.535 4.488,10.023 10.024,10.023 5.535,0 10.019,-4.488 10.019,-10.023 z"
         style="fill:#000000;fill-opacity:1;fill-rule:nonzero;stroke:none"
         id="path152" /><path
         d="m 463.566,591.023 c 0,-5.536 -4.488,-10.02 -10.023,-10.02 -5.535,0 -10.023,4.484 -10.023,10.02 0,5.535 4.488,10.023 10.023,10.023 5.535,0 10.023,-4.488 10.023,-10.023 z"
         style="fill:#000000;fill-opacity:1;fill-rule:nonzero;stroke:none"
         id="path154" /><path
         d="m 520.258,591.023 c 0,-5.536 -4.488,-10.02 -10.024,-10.02 -5.531,0 -10.019,4.484 -10.019,10.02 0,5.535 4.488,10.023 10.019,10.023 5.536,0 10.024,-4.488 10.024,-10.023 z"
         style="fill:#000000;fill-opacity:1;fill-rule:nonzero;stroke:none"
         id="path156" /><path
         d="m 66.715,647.718 c 0,-5.535 -4.488,-10.024 -10.024,-10.024 -5.535,0 -10.019,4.489 -10.019,10.024 0,5.535 4.484,10.019 10.019,10.019 5.536,0 10.024,-4.484 10.024,-10.019 z"
         style="fill:#000000;fill-opacity:1;fill-rule:nonzero;stroke:none"
         id="path158" /><path
         d="m 123.406,647.718 c 0,-5.535 -4.484,-10.024 -10.019,-10.024 -5.535,0 -10.024,4.489 -10.024,10.024 0,5.535 4.489,10.019 10.024,10.019 5.535,0 10.019,-4.484 10.019,-10.019 z"
         style="fill:#000000;fill-opacity:1;fill-rule:nonzero;stroke:none"
         id="path160" /><path
         d="m 180.102,647.718 c 0,-5.535 -4.489,-10.024 -10.024,-10.024 -5.535,0 -10.019,4.489 -10.019,10.024 0,5.535 4.484,10.019 10.019,10.019 5.535,0 10.024,-4.484 10.024,-10.019 z"
         style="fill:#000000;fill-opacity:1;fill-rule:nonzero;stroke:none"
         id="path162" /><path
         d="m 236.793,647.718 c 0,-5.535 -4.488,-10.024 -10.02,-10.024 -5.535,0 -10.023,4.489 -10.023,10.024 0,5.535 4.488,10.019 10.023,10.019 5.532,0 10.02,-4.484 10.02,-10.019 z"
         style="fill:#000000;fill-opacity:1;fill-rule:nonzero;stroke:none"
         id="path164" /><path
         d="m 293.488,647.718 c 0,-5.535 -4.488,-10.024 -10.023,-10.024 -5.535,0 -10.024,4.489 -10.024,10.024 0,5.535 4.489,10.019 10.024,10.019 5.535,0 10.023,-4.484 10.023,-10.019 z"
         style="fill:#000000;fill-opacity:1;fill-rule:nonzero;stroke:none"
         id="path166" /><path
         d="m 350.18,647.718 c 0,-5.535 -4.489,-10.024 -10.024,-10.024 -5.535,0 -10.019,4.489 -10.019,10.024 0,5.535 4.484,10.019 10.019,10.019 5.535,0 10.024,-4.484 10.024,-10.019 z"
         style="fill:#000000;fill-opacity:1;fill-rule:nonzero;stroke:none"
         id="path168" /><path
         d="m 406.871,647.718 c 0,-5.535 -4.484,-10.024 -10.019,-10.024 -5.536,0 -10.024,4.489 -10.024,10.024 0,5.535 4.488,10.019 10.024,10.019 5.535,0 10.019,-4.484 10.019,-10.019 z"
         style="fill:#000000;fill-opacity:1;fill-rule:nonzero;stroke:none"
         id="path170" /><path
         d="m 463.566,647.718 c 0,-5.535 -4.488,-10.024 -10.023,-10.024 -5.535,0 -10.023,4.489 -10.023,10.024 0,5.535 4.488,10.019 10.023,10.019 5.535,0 10.023,-4.484 10.023,-10.019 z"
         style="fill:#000000;fill-opacity:1;fill-rule:nonzero;stroke:none"
         id="path172" /><path
         d="m 520.258,647.718 c 0,-5.535 -4.488,-10.024 -10.024,-10.024 -5.531,0 -10.019,4.489 -10.019,10.024 0,5.535 4.488,10.019 10.019,10.019 5.536,0 10.024,-4.484 10.024,-10.019 z"
         style="fill:#000000;fill-opacity:1;fill-rule:nonzero;stroke:none"
         id="path174" /><path
         d="m 95.062,222.519 c 0,-5.535 -4.488,-10.02 -10.023,-10.02 -5.535,0 -10.023,4.485 -10.023,10.02 0,5.535 4.488,10.023 10.023,10.023 5.535,0 10.023,-4.488 10.023,-10.023 z"
         style="fill:#000000;fill-opacity:1;fill-rule:nonzero;stroke:none"
         id="path176" /><path
         d="m 151.754,222.519 c 0,-5.535 -4.488,-10.02 -10.024,-10.02 -5.531,0 -10.019,4.485 -10.019,10.02 0,5.535 4.488,10.023 10.019,10.023 5.536,0 10.024,-4.488 10.024,-10.023 z"
         style="fill:#000000;fill-opacity:1;fill-rule:nonzero;stroke:none"
         id="path178" /><path
         d="m 208.445,222.519 c 0,-5.535 -4.484,-10.02 -10.019,-10.02 -5.535,0 -10.024,4.485 -10.024,10.02 0,5.535 4.489,10.023 10.024,10.023 5.535,0 10.019,-4.488 10.019,-10.023 z"
         style="fill:#000000;fill-opacity:1;fill-rule:nonzero;stroke:none"
         id="path180" /><path
         d="m 265.141,222.519 c 0,-5.535 -4.489,-10.02 -10.024,-10.02 -5.535,0 -10.019,4.485 -10.019,10.02 0,5.535 4.484,10.023 10.019,10.023 5.535,0 10.024,-4.488 10.024,-10.023 z"
         style="fill:#000000;fill-opacity:1;fill-rule:nonzero;stroke:none"
         id="path182" /><path
         d="m 321.832,222.519 c 0,-5.535 -4.484,-10.02 -10.02,-10.02 -5.535,0 -10.023,4.485 -10.023,10.02 0,5.535 4.488,10.023 10.023,10.023 5.536,0 10.02,-4.488 10.02,-10.023 z"
         style="fill:#000000;fill-opacity:1;fill-rule:nonzero;stroke:none"
         id="path184" /><path
         d="m 378.527,222.519 c 0,-5.535 -4.488,-10.02 -10.023,-10.02 -5.535,0 -10.024,4.485 -10.024,10.02 0,5.535 4.489,10.023 10.024,10.023 5.535,0 10.023,-4.488 10.023,-10.023 z"
         style="fill:#000000;fill-opacity:1;fill-rule:nonzero;stroke:none"
         id="path186" /><path
         d="m 435.219,222.519 c 0,-5.535 -4.489,-10.02 -10.024,-10.02 -5.535,0 -10.019,4.485 -10.019,10.02 0,5.535 4.484,10.023 10.019,10.023 5.535,0 10.024,-4.488 10.024,-10.023 z"
         style="fill:#000000;fill-opacity:1;fill-rule:nonzero;stroke:none"
         id="path188" /><path
         d="m 491.91,222.519 c 0,-5.535 -4.484,-10.02 -10.019,-10.02 -5.536,0 -10.024,4.485 -10.024,10.02 0,5.535 4.488,10.023 10.024,10.023 5.535,0 10.019,-4.488 10.019,-10.023 z"
         style="fill:#000000;fill-opacity:1;fill-rule:nonzero;stroke:none"
         id="path190" /><path
         d="m 548.605,222.519 c 0,-5.535 -4.488,-10.02 -10.023,-10.02 -5.535,0 -10.02,4.485 -10.02,10.02 0,5.535 4.485,10.023 10.02,10.023 5.535,0 10.023,-4.488 10.023,-10.023 z"
         style="fill:#000000;fill-opacity:1;fill-rule:nonzero;stroke:none"
         id="path192" /><path
         d="m 95.062,279.214 c 0,-5.535 -4.488,-10.023 -10.023,-10.023 -5.535,0 -10.023,4.488 -10.023,10.023 0,5.535 4.488,10.02 10.023,10.02 5.535,0 10.023,-4.485 10.023,-10.02 z"
         style="fill:#000000;fill-opacity:1;fill-rule:nonzero;stroke:none"
         id="path194" /><path
         d="m 151.754,279.214 c 0,-5.535 -4.488,-10.023 -10.024,-10.023 -5.531,0 -10.019,4.488 -10.019,10.023 0,5.535 4.488,10.02 10.019,10.02 5.536,0 10.024,-4.485 10.024,-10.02 z"
         style="fill:#000000;fill-opacity:1;fill-rule:nonzero;stroke:none"
         id="path196" /><path
         d="m 208.445,279.214 c 0,-5.535 -4.484,-10.023 -10.019,-10.023 -5.535,0 -10.024,4.488 -10.024,10.023 0,5.535 4.489,10.02 10.024,10.02 5.535,0 10.019,-4.485 10.019,-10.02 z"
         style="fill:#000000;fill-opacity:1;fill-rule:nonzero;stroke:none"
         id="path198" /><path
         d="m 265.141,279.214 c 0,-5.535 -4.489,-10.023 -10.024,-10.023 -5.535,0 -10.019,4.488 -10.019,10.023 0,5.535 4.484,10.02 10.019,10.02 5.535,0 10.024,-4.485 10.024,-10.02 z"
         style="fill:#000000;fill-opacity:1;fill-rule:nonzero;stroke:none"
         id="path200" /><path
         d="m 321.832,279.214 c 0,-5.535 -4.484,-10.023 -10.02,-10.023 -5.535,0 -10.023,4.488 -10.023,10.023 0,5.535 4.488,10.02 10.023,10.02 5.536,0 10.02,-4.485 10.02,-10.02 z"
         style="fill:#000000;fill-opacity:1;fill-rule:nonzero;stroke:none"
         id="path202" /><path
         d="m 378.527,279.214 c 0,-5.535 -4.488,-10.023 -10.023,-10.023 -5.535,0 -10.024,4.488 -10.024,10.023 0,5.535 4.489,10.02 10.024,10.02 5.535,0 10.023,-4.485 10.023,-10.02 z"
         style="fill:#000000;fill-opacity:1;fill-rule:nonzero;stroke:none"
         id="path204" /><path
         d="m 435.219,279.214 c 0,-5.535 -4.489,-10.023 -10.024,-10.023 -5.535,0 -10.019,4.488 -10.019,10.023 0,5.535 4.484,10.02 10.019,10.02 5.535,0 10.024,-4.485 10.024,-10.02 z"
         style="fill:#000000;fill-opacity:1;fill-rule:nonzero;stroke:none"
         id="path206" /><path
         d="m 491.91,279.214 c 0,-5.535 -4.484,-10.023 -10.019,-10.023 -5.536,0 -10.024,4.488 -10.024,10.023 0,5.535 4.488,10.02 10.024,10.02 5.535,0 10.019,-4.485 10.019,-10.02 z"
         style="fill:#000000;fill-opacity:1;fill-rule:nonzero;stroke:none"
         id="path208" /><path
         d="m 548.605,279.214 c 0,-5.535 -4.488,-10.023 -10.023,-10.023 -5.535,0 -10.02,4.488 -10.02,10.023 0,5.535 4.485,10.02 10.02,10.02 5.535,0 10.023,-4.485 10.023,-10.02 z"
         style="fill:#000000;fill-opacity:1;fill-rule:nonzero;stroke:none"
         id="path210" /><path
         d="m 95.062,335.905 c 0,-5.535 -4.488,-10.023 -10.023,-10.023 -5.535,0 -10.023,4.488 -10.023,10.023 0,5.536 4.488,10.024 10.023,10.024 5.535,0 10.023,-4.488 10.023,-10.024 z"
         style="fill:#000000;fill-opacity:1;fill-rule:nonzero;stroke:none"
         id="path212" /><path
         d="m 151.754,335.905 c 0,-5.535 -4.488,-10.023 -10.024,-10.023 -5.531,0 -10.019,4.488 -10.019,10.023 0,5.536 4.488,10.024 10.019,10.024 5.536,0 10.024,-4.488 10.024,-10.024 z"
         style="fill:#000000;fill-opacity:1;fill-rule:nonzero;stroke:none"
         id="path214" /><path
         d="m 208.445,335.905 c 0,-5.535 -4.484,-10.023 -10.019,-10.023 -5.535,0 -10.024,4.488 -10.024,10.023 0,5.536 4.489,10.024 10.024,10.024 5.535,0 10.019,-4.488 10.019,-10.024 z"
         style="fill:#000000;fill-opacity:1;fill-rule:nonzero;stroke:none"
         id="path216" /><path
         d="m 265.141,335.905 c 0,-5.535 -4.489,-10.023 -10.024,-10.023 -5.535,0 -10.019,4.488 -10.019,10.023 0,5.536 4.484,10.024 10.019,10.024 5.535,0 10.024,-4.488 10.024,-10.024 z"
         style="fill:#000000;fill-opacity:1;fill-rule:nonzero;stroke:none"
         id="path218" /><path
         d="m 321.832,335.905 c 0,-5.535 -4.484,-10.023 -10.02,-10.023 -5.535,0 -10.023,4.488 -10.023,10.023 0,5.536 4.488,10.024 10.023,10.024 5.536,0 10.02,-4.488 10.02,-10.024 z"
         style="fill:#000000;fill-opacity:1;fill-rule:nonzero;stroke:none"
         id="path220" /><path
         d="m 378.527,335.905 c 0,-5.535 -4.488,-10.023 -10.023,-10.023 -5.535,0 -10.024,4.488 -10.024,10.023 0,5.536 4.489,10.024 10.024,10.024 5.535,0 10.023,-4.488 10.023,-10.024 z"
         style="fill:#000000;fill-opacity:1;fill-rule:nonzero;stroke:none"
         id="path222" /><path
         d="m 435.219,335.905 c 0,-5.535 -4.489,-10.023 -10.024,-10.023 -5.535,0 -10.019,4.488 -10.019,10.023 0,5.536 4.484,10.024 10.019,10.024 5.535,0 10.024,-4.488 10.024,-10.024 z"
         style="fill:#000000;fill-opacity:1;fill-rule:nonzero;stroke:none"
         id="path224" /><path
         d="m 491.91,335.905 c 0,-5.535 -4.484,-10.023 -10.019,-10.023 -5.536,0 -10.024,4.488 -10.024,10.023 0,5.536 4.488,10.024 10.024,10.024 5.535,0 10.019,-4.488 10.019,-10.024 z"
         style="fill:#000000;fill-opacity:1;fill-rule:nonzero;stroke:none"
         id="path226" /><path
         d="m 548.605,335.905 c 0,-5.535 -4.488,-10.023 -10.023,-10.023 -5.535,0 -10.02,4.488 -10.02,10.023 0,5.536 4.485,10.024 10.02,10.024 5.535,0 10.023,-4.488 10.023,-10.024 z"
         style="fill:#000000;fill-opacity:1;fill-rule:nonzero;stroke:none"
         id="path228" /><path
         d="m 95.062,392.597 c 0,-5.535 -4.488,-10.02 -10.023,-10.02 -5.535,0 -10.023,4.485 -10.023,10.02 0,5.535 4.488,10.023 10.023,10.023 5.535,0 10.023,-4.488 10.023,-10.023 z"
         style="fill:#000000;fill-opacity:1;fill-rule:nonzero;stroke:none"
         id="path230" /><path
         d="m 151.754,392.597 c 0,-5.535 -4.488,-10.02 -10.024,-10.02 -5.531,0 -10.019,4.485 -10.019,10.02 0,5.535 4.488,10.023 10.019,10.023 5.536,0 10.024,-4.488 10.024,-10.023 z"
         style="fill:#000000;fill-opacity:1;fill-rule:nonzero;stroke:none"
         id="path232" /><path
         d="m 208.445,392.597 c 0,-5.535 -4.484,-10.02 -10.019,-10.02 -5.535,0 -10.024,4.485 -10.024,10.02 0,5.535 4.489,10.023 10.024,10.023 5.535,0 10.019,-4.488 10.019,-10.023 z"
         style="fill:#000000;fill-opacity:1;fill-rule:nonzero;stroke:none"
         id="path234" /><path
         d="m 265.141,392.597 c 0,-5.535 -4.489,-10.02 -10.024,-10.02 -5.535,0 -10.019,4.485 -10.019,10.02 0,5.535 4.484,10.023 10.019,10.023 5.535,0 10.024,-4.488 10.024,-10.023 z"
         style="fill:#000000;fill-opacity:1;fill-rule:nonzero;stroke:none"
         id="path236" /><path
         d="m 321.832,392.597 c 0,-5.535 -4.484,-10.02 -10.02,-10.02 -5.535,0 -10.023,4.485 -10.023,10.02 0,5.535 4.488,10.023 10.023,10.023 5.536,0 10.02,-4.488 10.02,-10.023 z"
         style="fill:#000000;fill-opacity:1;fill-rule:nonzero;stroke:none"
         id="path238" /><path
         d="m 378.527,392.597 c 0,-5.535 -4.488,-10.02 -10.023,-10.02 -5.535,0 -10.024,4.485 -10.024,10.02 0,5.535 4.489,10.023 10.024,10.023 5.535,0 10.023,-4.488 10.023,-10.023 z"
         style="fill:#000000;fill-opacity:1;fill-rule:nonzero;stroke:none"
         id="path240" /><path
         d="m 435.219,392.597 c 0,-5.535 -4.489,-10.02 -10.024,-10.02 -5.535,0 -10.019,4.485 -10.019,10.02 0,5.535 4.484,10.023 10.019,10.023 5.535,0 10.024,-4.488 10.024,-10.023 z"
         style="fill:#000000;fill-opacity:1;fill-rule:nonzero;stroke:none"
         id="path242" /><path
         d="m 491.91,392.597 c 0,-5.535 -4.484,-10.02 -10.019,-10.02 -5.536,0 -10.024,4.485 -10.024,10.02 0,5.535 4.488,10.023 10.024,10.023 5.535,0 10.019,-4.488 10.019,-10.023 z"
         style="fill:#000000;fill-opacity:1;fill-rule:nonzero;stroke:none"
         id="path244" /><path
         d="m 548.605,392.597 c 0,-5.535 -4.488,-10.02 -10.023,-10.02 -5.535,0 -10.02,4.485 -10.02,10.02 0,5.535 4.485,10.023 10.02,10.023 5.535,0 10.023,-4.488 10.023,-10.023 z"
         style="fill:#000000;fill-opacity:1;fill-rule:nonzero;stroke:none"
         id="path246" /><path
         d="m 95.062,449.292 c 0,-5.535 -4.488,-10.023 -10.023,-10.023 -5.535,0 -10.023,4.488 -10.023,10.023 0,5.535 4.488,10.02 10.023,10.02 5.535,0 10.023,-4.485 10.023,-10.02 z"
         style="fill:#000000;fill-opacity:1;fill-rule:nonzero;stroke:none"
         id="path248" /><path
         d="m 151.754,449.292 c 0,-5.535 -4.488,-10.023 -10.024,-10.023 -5.531,0 -10.019,4.488 -10.019,10.023 0,5.535 4.488,10.02 10.019,10.02 5.536,0 10.024,-4.485 10.024,-10.02 z"
         style="fill:#000000;fill-opacity:1;fill-rule:nonzero;stroke:none"
         id="path250" /><path
         d="m 208.445,449.292 c 0,-5.535 -4.484,-10.023 -10.019,-10.023 -5.535,0 -10.024,4.488 -10.024,10.023 0,5.535 4.489,10.02 10.024,10.02 5.535,0 10.019,-4.485 10.019,-10.02 z"
         style="fill:#000000;fill-opacity:1;fill-rule:nonzero;stroke:none"
         id="path252" /><path
         d="m 265.141,449.292 c 0,-5.535 -4.489,-10.023 -10.024,-10.023 -5.535,0 -10.019,4.488 -10.019,10.023 0,5.535 4.484,10.02 10.019,10.02 5.535,0 10.024,-4.485 10.024,-10.02 z"
         style="fill:#000000;fill-opacity:1;fill-rule:nonzero;stroke:none"
         id="path254" /><path
         d="m 321.832,449.292 c 0,-5.535 -4.484,-10.023 -10.02,-10.023 -5.535,0 -10.023,4.488 -10.023,10.023 0,5.535 4.488,10.02 10.023,10.02 5.536,0 10.02,-4.485 10.02,-10.02 z"
         style="fill:#000000;fill-opacity:1;fill-rule:nonzero;stroke:none"
         id="path256" /><path
         d="m 378.527,449.292 c 0,-5.535 -4.488,-10.023 -10.023,-10.023 -5.535,0 -10.024,4.488 -10.024,10.023 0,5.535 4.489,10.02 10.024,10.02 5.535,0 10.023,-4.485 10.023,-10.02 z"
         style="fill:#000000;fill-opacity:1;fill-rule:nonzero;stroke:none"
         id="path258" /><path
         d="m 435.219,449.292 c 0,-5.535 -4.489,-10.023 -10.024,-10.023 -5.535,0 -10.019,4.488 -10.019,10.023 0,5.535 4.484,10.02 10.019,10.02 5.535,0 10.024,-4.485 10.024,-10.02 z"
         style="fill:#000000;fill-opacity:1;fill-rule:nonzero;stroke:none"
         id="path260" /><path
         d="m 491.91,449.292 c 0,-5.535 -4.484,-10.023 -10.019,-10.023 -5.536,0 -10.024,4.488 -10.024,10.023 0,5.535 4.488,10.02 10.024,10.02 5.535,0 10.019,-4.485 10.019,-10.02 z"
         style="fill:#000000;fill-opacity:1;fill-rule:nonzero;stroke:none"
         id="path262" /><path
         d="m 548.605,449.292 c 0,-5.535 -4.488,-10.023 -10.023,-10.023 -5.535,0 -10.02,4.488 -10.02,10.023 0,5.535 4.485,10.02 10.02,10.02 5.535,0 10.023,-4.485 10.023,-10.02 z"
         style="fill:#000000;fill-opacity:1;fill-rule:nonzero;stroke:none"
         id="path264" /><path
         d="m 95.062,505.984 c 0,-5.536 -4.488,-10.02 -10.023,-10.02 -5.535,0 -10.023,4.484 -10.023,10.02 0,5.535 4.488,10.023 10.023,10.023 5.535,0 10.023,-4.488 10.023,-10.023 z"
         style="fill:#000000;fill-opacity:1;fill-rule:nonzero;stroke:none"
         id="path266" /><path
         d="m 151.754,505.984 c 0,-5.536 -4.488,-10.02 -10.024,-10.02 -5.531,0 -10.019,4.484 -10.019,10.02 0,5.535 4.488,10.023 10.019,10.023 5.536,0 10.024,-4.488 10.024,-10.023 z"
         style="fill:#000000;fill-opacity:1;fill-rule:nonzero;stroke:none"
         id="path268" /><path
         d="m 208.445,505.984 c 0,-5.536 -4.484,-10.02 -10.019,-10.02 -5.535,0 -10.024,4.484 -10.024,10.02 0,5.535 4.489,10.023 10.024,10.023 5.535,0 10.019,-4.488 10.019,-10.023 z"
         style="fill:#000000;fill-opacity:1;fill-rule:nonzero;stroke:none"
         id="path270" /><path
         d="m 265.141,505.984 c 0,-5.536 -4.489,-10.02 -10.024,-10.02 -5.535,0 -10.019,4.484 -10.019,10.02 0,5.535 4.484,10.023 10.019,10.023 5.535,0 10.024,-4.488 10.024,-10.023 z"
         style="fill:#000000;fill-opacity:1;fill-rule:nonzero;stroke:none"
         id="path272" /><path
         d="m 321.832,505.984 c 0,-5.536 -4.484,-10.02 -10.02,-10.02 -5.535,0 -10.023,4.484 -10.023,10.02 0,5.535 4.488,10.023 10.023,10.023 5.536,0 10.02,-4.488 10.02,-10.023 z"
         style="fill:#000000;fill-opacity:1;fill-rule:nonzero;stroke:none"
         id="path274" /><path
         d="m 378.527,505.984 c 0,-5.536 -4.488,-10.02 -10.023,-10.02 -5.535,0 -10.024,4.484 -10.024,10.02 0,5.535 4.489,10.023 10.024,10.023 5.535,0 10.023,-4.488 10.023,-10.023 z"
         style="fill:#000000;fill-opacity:1;fill-rule:nonzero;stroke:none"
         id="path276" /><path
         d="m 435.219,505.984 c 0,-5.536 -4.489,-10.02 -10.024,-10.02 -5.535,0 -10.019,4.484 -10.019,10.02 0,5.535 4.484,10.023 10.019,10.023 5.535,0 10.024,-4.488 10.024,-10.023 z"
         style="fill:#000000;fill-opacity:1;fill-rule:nonzero;stroke:none"
         id="path278" /><path
         d="m 491.91,505.984 c 0,-5.536 -4.484,-10.02 -10.019,-10.02 -5.536,0 -10.024,4.484 -10.024,10.02 0,5.535 4.488,10.023 10.024,10.023 5.535,0 10.019,-4.488 10.019,-10.023 z"
         style="fill:#000000;fill-opacity:1;fill-rule:nonzero;stroke:none"
         id="path280" /><path
         d="m 548.605,505.984 c 0,-5.536 -4.488,-10.02 -10.023,-10.02 -5.535,0 -10.02,4.484 -10.02,10.02 0,5.535 4.485,10.023 10.02,10.023 5.535,0 10.023,-4.488 10.023,-10.023 z"
         style="fill:#000000;fill-opacity:1;fill-rule:nonzero;stroke:none"
         id="path282" /><path
         d="m 95.062,562.679 c 0,-5.535 -4.488,-10.024 -10.023,-10.024 -5.535,0 -10.023,4.489 -10.023,10.024 0,5.535 4.488,10.019 10.023,10.019 5.535,0 10.023,-4.484 10.023,-10.019 z"
         style="fill:#000000;fill-opacity:1;fill-rule:nonzero;stroke:none"
         id="path284" /><path
         d="m 151.754,562.679 c 0,-5.535 -4.488,-10.024 -10.024,-10.024 -5.531,0 -10.019,4.489 -10.019,10.024 0,5.535 4.488,10.019 10.019,10.019 5.536,0 10.024,-4.484 10.024,-10.019 z"
         style="fill:#000000;fill-opacity:1;fill-rule:nonzero;stroke:none"
         id="path286" /><path
         d="m 208.445,562.679 c 0,-5.535 -4.484,-10.024 -10.019,-10.024 -5.535,0 -10.024,4.489 -10.024,10.024 0,5.535 4.489,10.019 10.024,10.019 5.535,0 10.019,-4.484 10.019,-10.019 z"
         style="fill:#000000;fill-opacity:1;fill-rule:nonzero;stroke:none"
         id="path288" /><path
         d="m 265.141,562.679 c 0,-5.535 -4.489,-10.024 -10.024,-10.024 -5.535,0 -10.019,4.489 -10.019,10.024 0,5.535 4.484,10.019 10.019,10.019 5.535,0 10.024,-4.484 10.024,-10.019 z"
         style="fill:#000000;fill-opacity:1;fill-rule:nonzero;stroke:none"
         id="path290" /><path
         d="m 321.832,562.679 c 0,-5.535 -4.484,-10.024 -10.02,-10.024 -5.535,0 -10.023,4.489 -10.023,10.024 0,5.535 4.488,10.019 10.023,10.019 5.536,0 10.02,-4.484 10.02,-10.019 z"
         style="fill:#000000;fill-opacity:1;fill-rule:nonzero;stroke:none"
         id="path292" /><path
         d="m 378.527,562.679 c 0,-5.535 -4.488,-10.024 -10.023,-10.024 -5.535,0 -10.024,4.489 -10.024,10.024 0,5.535 4.489,10.019 10.024,10.019 5.535,0 10.023,-4.484 10.023,-10.019 z"
         style="fill:#000000;fill-opacity:1;fill-rule:nonzero;stroke:none"
         id="path294" /><path
         d="m 435.219,562.679 c 0,-5.535 -4.489,-10.024 -10.024,-10.024 -5.535,0 -10.019,4.489 -10.019,10.024 0,5.535 4.484,10.019 10.019,10.019 5.535,0 10.024,-4.484 10.024,-10.019 z"
         style="fill:#000000;fill-opacity:1;fill-rule:nonzero;stroke:none"
         id="path296" /><path
         d="m 491.91,562.679 c 0,-5.535 -4.484,-10.024 -10.019,-10.024 -5.536,0 -10.024,4.489 -10.024,10.024 0,5.535 4.488,10.019 10.024,10.019 5.535,0 10.019,-4.484 10.019,-10.019 z"
         style="fill:#000000;fill-opacity:1;fill-rule:nonzero;stroke:none"
         id="path298" /><path
         d="m 548.605,562.679 c 0,-5.535 -4.488,-10.024 -10.023,-10.024 -5.535,0 -10.02,4.489 -10.02,10.024 0,5.535 4.485,10.019 10.02,10.019 5.535,0 10.023,-4.484 10.023,-10.019 z"
         style="fill:#000000;fill-opacity:1;fill-rule:nonzero;stroke:none"
         id="path300" /><path
         d="m 95.062,619.37 c 0,-5.535 -4.488,-10.023 -10.023,-10.023 -5.535,0 -10.023,4.488 -10.023,10.023 0,5.535 4.488,10.024 10.023,10.024 5.535,0 10.023,-4.489 10.023,-10.024 z"
         style="fill:#000000;fill-opacity:1;fill-rule:nonzero;stroke:none"
         id="path302" /><path
         d="m 151.754,619.37 c 0,-5.535 -4.488,-10.023 -10.024,-10.023 -5.531,0 -10.019,4.488 -10.019,10.023 0,5.535 4.488,10.024 10.019,10.024 5.536,0 10.024,-4.489 10.024,-10.024 z"
         style="fill:#000000;fill-opacity:1;fill-rule:nonzero;stroke:none"
         id="path304" /><path
         d="m 208.445,619.37 c 0,-5.535 -4.484,-10.023 -10.019,-10.023 -5.535,0 -10.024,4.488 -10.024,10.023 0,5.535 4.489,10.024 10.024,10.024 5.535,0 10.019,-4.489 10.019,-10.024 z"
         style="fill:#000000;fill-opacity:1;fill-rule:nonzero;stroke:none"
         id="path306" /><path
         d="m 265.141,619.37 c 0,-5.535 -4.489,-10.023 -10.024,-10.023 -5.535,0 -10.019,4.488 -10.019,10.023 0,5.535 4.484,10.024 10.019,10.024 5.535,0 10.024,-4.489 10.024,-10.024 z"
         style="fill:#000000;fill-opacity:1;fill-rule:nonzero;stroke:none"
         id="path308" /><path
         d="m 321.832,619.37 c 0,-5.535 -4.484,-10.023 -10.02,-10.023 -5.535,0 -10.023,4.488 -10.023,10.023 0,5.535 4.488,10.024 10.023,10.024 5.536,0 10.02,-4.489 10.02,-10.024 z"
         style="fill:#000000;fill-opacity:1;fill-rule:nonzero;stroke:none"
         id="path310" /><path
         d="m 378.527,619.37 c 0,-5.535 -4.488,-10.023 -10.023,-10.023 -5.535,0 -10.024,4.488 -10.024,10.023 0,5.535 4.489,10.024 10.024,10.024 5.535,0 10.023,-4.489 10.023,-10.024 z"
         style="fill:#000000;fill-opacity:1;fill-rule:nonzero;stroke:none"
         id="path312" /><path
         d="m 435.219,619.37 c 0,-5.535 -4.489,-10.023 -10.024,-10.023 -5.535,0 -10.019,4.488 -10.019,10.023 0,5.535 4.484,10.024 10.019,10.024 5.535,0 10.024,-4.489 10.024,-10.024 z"
         style="fill:#000000;fill-opacity:1;fill-rule:nonzero;stroke:none"
         id="path314" /><path
         d="m 491.91,619.37 c 0,-5.535 -4.484,-10.023 -10.019,-10.023 -5.536,0 -10.024,4.488 -10.024,10.023 0,5.535 4.488,10.024 10.024,10.024 5.535,0 10.019,-4.489 10.019,-10.024 z"
         style="fill:#000000;fill-opacity:1;fill-rule:nonzero;stroke:none"
         id="path316" /><path
         d="m 548.605,619.37 c 0,-5.535 -4.488,-10.023 -10.023,-10.023 -5.535,0 -10.02,4.488 -10.02,10.023 0,5.535 4.485,10.024 10.02,10.024 5.535,0 10.023,-4.489 10.023,-10.024 z"
         style="fill:#000000;fill-opacity:1;fill-rule:nonzero;stroke:none"
         id="path318" /></g></g></svg>